<svg viewBox="0 0 392 56" xmlns="http://www.w3.org/2000/svg"><g fill="#fff"><path d="m48 8h8v40h-8z"/><path d="m8 8v-8h-8v48h40v-40zm24 32h-24v-24h24z"/><path d="m72 8h-8v32h32v8h-24v8h32v-48zm24 24h-24v-16h24z"/><path d="m119 8h-7v24h1 7 24v8h-32v8h32 8v-8-8-8h-8-24v-8h32v-8h-32z"/><path d="m160 8v8 32h3 5 32v-8h-32v-24h32v-8h-32z"/><path d="m212 8h-4v40h8v-32h32v-8h-32z"/><path d="m264 8h-8v40h40v-8h-32v-8h32v-24zm25 16h-25v-8h25z"/><path d="m312 8h-8v40h40v-8h-32v-8h32v-24zm24 16h-24v-8h24z"/><path d="m384 8h-24-8v8 32h8v-32h24v32h8v-32-8z"/></g></svg>