<?xml version="1.0" encoding="UTF-8"?>
<svg width="353px" height="482px" viewBox="0 0 353 482" version="1.1" xmlns="http://www.w3.org/2000/svg" xmlns:xlink="http://www.w3.org/1999/xlink">
    <title>vr</title>
    <g id="Page-1" stroke="none" stroke-width="1" fill="none" fill-rule="evenodd">
        <g id="vr" fill="#000000">
            <path d="M38.449,141.88034 L314.239,141.88034 C328.048,141.88034 338.575,152.14634 338.575,164.72834 L338.575,258.18534 C338.575,270.72834 328.048,280.97034 314.239,280.97034 L38.449,280.97034 C24.668,280.97034 14.1089978,270.72834 14.1089978,258.18534 L14.1089978,164.72834 C14.105094,152.15434 24.671,141.88034 38.449,141.88034 Z M135.609,33.89034 L135.609,127.78534 L43.332,127.78534 C53.98,80.62934 88.586,48.02334 135.609,33.89034 Z M216.683,33.738 C263.71,47.347 298.417,80.629 309.046,127.789 L216.683,127.785094 L216.683,33.738 Z M159.132,14.156 L193.187,14.156 C198.5073,14.156 202.5815,18.1755 202.5815,23.4529 L202.585406,127.7829 L149.765406,127.7829 L149.765406,23.4529 C149.769313,18.1756 153.816206,14.1521 159.132606,14.1521 L159.132,14.156 Z M159.132,0 C147.726,0 138.124,8.293 136.054,19.121 C81.449,34.098 39.671,73.051 28.754,129.051 C12.352,133.1643 0,147.461 0,164.735 L0,258.192 C0,278.028 16.309,293.977 36.332,295.016 C38.4726,313.161 42.0937,326.961 48.644,338.309 C55.1909,349.582 65.238,357.977 77.324,366.602 C77.324,370.2934 77.35525,405.297 77.3865,420.102 C77.41775,431.219 74.4295,436.473 63.0585,442.426 L14.0665,468.094 C5.0548,472.2424 12.0548,485.621 20.5743,480.606 L69.5823,454.969 C84.0663,447.3831 91.5473,435.008 91.5163,420.098 C91.48505,404.543 91.41083,363.813 91.41083,363.813 C91.41083,361.4497 90.25463,359.2778 88.33663,357.9771 C75.05163,348.899 66.68863,341.2501 60.85263,331.2041 C55.79403,322.4502 52.59483,311.1141 50.57963,295.1101 L301.99963,295.1101 C299.44103,318.7001 294.67153,330.6961 284.29663,341.4771 C272.99163,353.2741 253.48463,364.1681 221.98763,383.9931 C213.17123,389.5361 186.56563,397.2821 176.19063,397.2821 C165.81963,397.2821 139.24163,389.5282 130.42463,383.9931 C122.33083,378.0712 114.09663,391.0986 122.90903,395.8911 C136.16303,404.2544 160.47103,411.3831 176.19003,411.3831 C191.90903,411.3831 216.21003,404.2542 229.47103,395.8911 C239.38123,389.6684 247.84603,384.4851 255.65503,379.6211 C255.65503,391.1011 255.615967,408.4061 255.615967,420.0981 C255.584717,434.9771 263.037867,447.3831 277.498967,454.9691 L326.529967,480.5741 C334.955767,485.2655 341.759967,472.3475 333.076867,468.0971 L284.045867,442.4991 C272.701867,436.5303 269.729867,431.2261 269.752867,420.1041 C269.784117,405.8111 269.784117,376.1241 269.823179,370.7171 C279.827179,364.139 287.905179,358.0721 294.518179,351.2051 C307.385179,337.7911 313.377179,321.2951 316.166179,295.0491 C336.287179,294.08035 352.658179,278.1001 352.658179,258.1941 L352.658179,164.7371 C352.658179,147.3971 340.213179,133.0341 323.674179,128.9831 C312.760179,73.0881 270.951179,33.4211 216.174179,18.9931 C214.076479,8.2351 204.506179,0.0051 193.170179,0.0051 L159.132,0 Z" id="Shape" fill-rule="nonzero"></path>
            <text id="404" font-family="UniNeueBold, Uni Neue" font-size="100" font-weight="bold">
                <tspan x="88" y="241">404</tspan>
            </text>
        </g>
    </g>
</svg>